<mxfile host="Electron" modified="2024-02-17T11:12:45.918Z" agent="Mozilla/5.0 (Windows NT 10.0; Win64; x64) AppleWebKit/537.36 (KHTML, like Gecko) draw.io/22.0.2 Chrome/114.0.5735.289 Electron/25.8.4 Safari/537.36" etag="nAytv2iLaQzyd0xOYOI0" version="22.0.2" type="device">
  <diagram name="Страница — 1" id="0J1YLI3GRg8cTrJ1otGk">
    <mxGraphModel dx="1182" dy="683" grid="1" gridSize="10" guides="1" tooltips="1" connect="1" arrows="1" fold="1" page="1" pageScale="1" pageWidth="827" pageHeight="1169" math="0" shadow="0">
      <root>
        <mxCell id="0" />
        <mxCell id="1" parent="0" />
        <mxCell id="EUtt2qG-mCYQ3yjdXnSH-9" style="edgeStyle=orthogonalEdgeStyle;rounded=0;orthogonalLoop=1;jettySize=auto;html=1;exitX=0.5;exitY=1;exitDx=0;exitDy=0;entryX=0.5;entryY=0;entryDx=0;entryDy=0;" edge="1" parent="1" source="EUtt2qG-mCYQ3yjdXnSH-1" target="EUtt2qG-mCYQ3yjdXnSH-3">
          <mxGeometry relative="1" as="geometry" />
        </mxCell>
        <mxCell id="EUtt2qG-mCYQ3yjdXnSH-1" value="Начало" style="rounded=1;whiteSpace=wrap;html=1;" vertex="1" parent="1">
          <mxGeometry x="130" y="30" width="120" height="60" as="geometry" />
        </mxCell>
        <mxCell id="EUtt2qG-mCYQ3yjdXnSH-10" style="edgeStyle=orthogonalEdgeStyle;rounded=0;orthogonalLoop=1;jettySize=auto;html=1;exitX=0.5;exitY=1;exitDx=0;exitDy=0;entryX=0.5;entryY=0;entryDx=0;entryDy=0;" edge="1" parent="1" source="EUtt2qG-mCYQ3yjdXnSH-3" target="EUtt2qG-mCYQ3yjdXnSH-4">
          <mxGeometry relative="1" as="geometry" />
        </mxCell>
        <mxCell id="EUtt2qG-mCYQ3yjdXnSH-3" value="Ввести длину массива (size1);&lt;br&gt;Ввести массив строк (array1);&lt;br&gt;Количество элементов (size2)&lt;br&gt;&amp;nbsp;нового массива (array2) равно нулю;" style="rounded=0;whiteSpace=wrap;html=1;" vertex="1" parent="1">
          <mxGeometry x="82.5" y="120" width="215" height="80" as="geometry" />
        </mxCell>
        <mxCell id="EUtt2qG-mCYQ3yjdXnSH-11" style="edgeStyle=orthogonalEdgeStyle;rounded=0;orthogonalLoop=1;jettySize=auto;html=1;exitX=0.5;exitY=1;exitDx=0;exitDy=0;entryX=0.5;entryY=0;entryDx=0;entryDy=0;" edge="1" parent="1" source="EUtt2qG-mCYQ3yjdXnSH-4" target="EUtt2qG-mCYQ3yjdXnSH-5">
          <mxGeometry relative="1" as="geometry" />
        </mxCell>
        <mxCell id="EUtt2qG-mCYQ3yjdXnSH-4" value="Для каждого из элементов массива array1" style="shape=hexagon;perimeter=hexagonPerimeter2;whiteSpace=wrap;html=1;fixedSize=1;" vertex="1" parent="1">
          <mxGeometry x="95" y="230" width="180" height="80" as="geometry" />
        </mxCell>
        <mxCell id="EUtt2qG-mCYQ3yjdXnSH-12" style="edgeStyle=orthogonalEdgeStyle;rounded=0;orthogonalLoop=1;jettySize=auto;html=1;exitX=0.5;exitY=1;exitDx=0;exitDy=0;entryX=0.5;entryY=0;entryDx=0;entryDy=0;" edge="1" parent="1" source="EUtt2qG-mCYQ3yjdXnSH-5" target="EUtt2qG-mCYQ3yjdXnSH-6">
          <mxGeometry relative="1" as="geometry" />
        </mxCell>
        <mxCell id="EUtt2qG-mCYQ3yjdXnSH-5" value="Длина строки меньше 4?" style="rhombus;whiteSpace=wrap;html=1;" vertex="1" parent="1">
          <mxGeometry x="130" y="340" width="110" height="100" as="geometry" />
        </mxCell>
        <mxCell id="EUtt2qG-mCYQ3yjdXnSH-16" style="edgeStyle=orthogonalEdgeStyle;rounded=0;orthogonalLoop=1;jettySize=auto;html=1;exitX=0.5;exitY=1;exitDx=0;exitDy=0;entryX=0;entryY=0.5;entryDx=0;entryDy=0;" edge="1" parent="1" source="EUtt2qG-mCYQ3yjdXnSH-6" target="EUtt2qG-mCYQ3yjdXnSH-4">
          <mxGeometry relative="1" as="geometry">
            <Array as="points">
              <mxPoint x="185" y="570" />
              <mxPoint x="30" y="570" />
              <mxPoint x="30" y="270" />
            </Array>
          </mxGeometry>
        </mxCell>
        <mxCell id="EUtt2qG-mCYQ3yjdXnSH-6" value="Инкремент size2" style="rounded=0;whiteSpace=wrap;html=1;" vertex="1" parent="1">
          <mxGeometry x="125" y="490" width="120" height="60" as="geometry" />
        </mxCell>
        <mxCell id="EUtt2qG-mCYQ3yjdXnSH-19" value="" style="endArrow=none;html=1;rounded=0;entryX=0;entryY=0.5;entryDx=0;entryDy=0;" edge="1" parent="1" target="EUtt2qG-mCYQ3yjdXnSH-5">
          <mxGeometry width="50" height="50" relative="1" as="geometry">
            <mxPoint x="50" y="390" as="sourcePoint" />
            <mxPoint x="110" y="390" as="targetPoint" />
          </mxGeometry>
        </mxCell>
        <mxCell id="EUtt2qG-mCYQ3yjdXnSH-20" value="" style="endArrow=classic;html=1;rounded=0;" edge="1" parent="1">
          <mxGeometry width="50" height="50" relative="1" as="geometry">
            <mxPoint x="50" y="390" as="sourcePoint" />
            <mxPoint x="90" y="270" as="targetPoint" />
          </mxGeometry>
        </mxCell>
        <mxCell id="EUtt2qG-mCYQ3yjdXnSH-33" style="edgeStyle=none;rounded=0;orthogonalLoop=1;jettySize=auto;html=1;exitX=0.5;exitY=1;exitDx=0;exitDy=0;entryX=0.5;entryY=0;entryDx=0;entryDy=0;" edge="1" parent="1" source="EUtt2qG-mCYQ3yjdXnSH-21" target="EUtt2qG-mCYQ3yjdXnSH-28">
          <mxGeometry relative="1" as="geometry" />
        </mxCell>
        <mxCell id="EUtt2qG-mCYQ3yjdXnSH-21" value="Для каждого из элементов массива array1" style="shape=hexagon;perimeter=hexagonPerimeter2;whiteSpace=wrap;html=1;fixedSize=1;" vertex="1" parent="1">
          <mxGeometry x="310" y="440" width="180" height="80" as="geometry" />
        </mxCell>
        <mxCell id="EUtt2qG-mCYQ3yjdXnSH-27" style="edgeStyle=none;rounded=0;orthogonalLoop=1;jettySize=auto;html=1;exitX=0.5;exitY=1;exitDx=0;exitDy=0;entryX=0.5;entryY=0;entryDx=0;entryDy=0;" edge="1" parent="1" source="EUtt2qG-mCYQ3yjdXnSH-22" target="EUtt2qG-mCYQ3yjdXnSH-21">
          <mxGeometry relative="1" as="geometry" />
        </mxCell>
        <mxCell id="EUtt2qG-mCYQ3yjdXnSH-22" value="Создаем массив array2 с размером size2;&lt;br&gt;Присваиваем 0 индексу i2 второго массива;" style="rounded=0;whiteSpace=wrap;html=1;" vertex="1" parent="1">
          <mxGeometry x="270" y="320" width="260" height="80" as="geometry" />
        </mxCell>
        <mxCell id="EUtt2qG-mCYQ3yjdXnSH-25" value="" style="endArrow=none;html=1;rounded=0;" edge="1" parent="1">
          <mxGeometry width="50" height="50" relative="1" as="geometry">
            <mxPoint x="275" y="270" as="sourcePoint" />
            <mxPoint x="400" y="270" as="targetPoint" />
          </mxGeometry>
        </mxCell>
        <mxCell id="EUtt2qG-mCYQ3yjdXnSH-26" value="" style="endArrow=classic;html=1;rounded=0;entryX=0.5;entryY=0;entryDx=0;entryDy=0;" edge="1" parent="1" target="EUtt2qG-mCYQ3yjdXnSH-22">
          <mxGeometry width="50" height="50" relative="1" as="geometry">
            <mxPoint x="400" y="270" as="sourcePoint" />
            <mxPoint x="450" y="220" as="targetPoint" />
          </mxGeometry>
        </mxCell>
        <mxCell id="EUtt2qG-mCYQ3yjdXnSH-36" style="edgeStyle=none;rounded=0;orthogonalLoop=1;jettySize=auto;html=1;exitX=0.5;exitY=1;exitDx=0;exitDy=0;entryX=0.5;entryY=0;entryDx=0;entryDy=0;" edge="1" parent="1" source="EUtt2qG-mCYQ3yjdXnSH-28" target="EUtt2qG-mCYQ3yjdXnSH-35">
          <mxGeometry relative="1" as="geometry" />
        </mxCell>
        <mxCell id="EUtt2qG-mCYQ3yjdXnSH-28" value="Длина строки меньше 4?" style="rhombus;whiteSpace=wrap;html=1;" vertex="1" parent="1">
          <mxGeometry x="342.5" y="570" width="115" height="100" as="geometry" />
        </mxCell>
        <mxCell id="EUtt2qG-mCYQ3yjdXnSH-29" value="Да" style="text;html=1;align=center;verticalAlign=middle;resizable=0;points=[];autosize=1;strokeColor=none;fillColor=none;" vertex="1" parent="1">
          <mxGeometry x="150" y="440" width="40" height="30" as="geometry" />
        </mxCell>
        <mxCell id="EUtt2qG-mCYQ3yjdXnSH-30" value="Нет" style="text;html=1;align=center;verticalAlign=middle;resizable=0;points=[];autosize=1;strokeColor=none;fillColor=none;" vertex="1" parent="1">
          <mxGeometry x="90" y="360" width="40" height="30" as="geometry" />
        </mxCell>
        <mxCell id="EUtt2qG-mCYQ3yjdXnSH-31" value="Цикл" style="text;html=1;align=center;verticalAlign=middle;resizable=0;points=[];autosize=1;strokeColor=none;fillColor=none;" vertex="1" parent="1">
          <mxGeometry x="140" y="308" width="50" height="30" as="geometry" />
        </mxCell>
        <mxCell id="EUtt2qG-mCYQ3yjdXnSH-32" value="Выход из цикла" style="text;html=1;align=center;verticalAlign=middle;resizable=0;points=[];autosize=1;strokeColor=none;fillColor=none;" vertex="1" parent="1">
          <mxGeometry x="270" y="238" width="110" height="30" as="geometry" />
        </mxCell>
        <mxCell id="EUtt2qG-mCYQ3yjdXnSH-34" value="Цикл" style="text;html=1;align=center;verticalAlign=middle;resizable=0;points=[];autosize=1;strokeColor=none;fillColor=none;" vertex="1" parent="1">
          <mxGeometry x="360" y="520" width="50" height="30" as="geometry" />
        </mxCell>
        <mxCell id="EUtt2qG-mCYQ3yjdXnSH-35" value="Присваивание элементу с индексом i2 массива array2 значение перечисляемого элемента маччива array1;&lt;br&gt;Инкремент i2;" style="rounded=0;whiteSpace=wrap;html=1;" vertex="1" parent="1">
          <mxGeometry x="280" y="710" width="240" height="80" as="geometry" />
        </mxCell>
        <mxCell id="EUtt2qG-mCYQ3yjdXnSH-37" value="Да" style="text;html=1;align=center;verticalAlign=middle;resizable=0;points=[];autosize=1;strokeColor=none;fillColor=none;" vertex="1" parent="1">
          <mxGeometry x="370" y="660" width="40" height="30" as="geometry" />
        </mxCell>
        <mxCell id="EUtt2qG-mCYQ3yjdXnSH-38" value="" style="endArrow=none;html=1;rounded=0;" edge="1" parent="1">
          <mxGeometry width="50" height="50" relative="1" as="geometry">
            <mxPoint x="400" y="840" as="sourcePoint" />
            <mxPoint x="400" y="790" as="targetPoint" />
          </mxGeometry>
        </mxCell>
        <mxCell id="EUtt2qG-mCYQ3yjdXnSH-39" value="" style="endArrow=none;html=1;rounded=0;" edge="1" parent="1">
          <mxGeometry width="50" height="50" relative="1" as="geometry">
            <mxPoint x="240" y="840" as="sourcePoint" />
            <mxPoint x="400" y="840" as="targetPoint" />
          </mxGeometry>
        </mxCell>
        <mxCell id="EUtt2qG-mCYQ3yjdXnSH-40" value="" style="endArrow=none;html=1;rounded=0;" edge="1" parent="1">
          <mxGeometry width="50" height="50" relative="1" as="geometry">
            <mxPoint x="240" y="600" as="sourcePoint" />
            <mxPoint x="240" y="840" as="targetPoint" />
          </mxGeometry>
        </mxCell>
        <mxCell id="EUtt2qG-mCYQ3yjdXnSH-41" value="" style="endArrow=classic;html=1;rounded=0;entryX=0;entryY=0.5;entryDx=0;entryDy=0;" edge="1" parent="1" target="EUtt2qG-mCYQ3yjdXnSH-21">
          <mxGeometry width="50" height="50" relative="1" as="geometry">
            <mxPoint x="240" y="600" as="sourcePoint" />
            <mxPoint x="290" y="550" as="targetPoint" />
          </mxGeometry>
        </mxCell>
        <mxCell id="EUtt2qG-mCYQ3yjdXnSH-42" value="" style="endArrow=none;html=1;rounded=0;" edge="1" parent="1">
          <mxGeometry width="50" height="50" relative="1" as="geometry">
            <mxPoint x="280" y="620" as="sourcePoint" />
            <mxPoint x="342.5" y="620" as="targetPoint" />
          </mxGeometry>
        </mxCell>
        <mxCell id="EUtt2qG-mCYQ3yjdXnSH-43" value="" style="endArrow=classic;html=1;rounded=0;" edge="1" parent="1">
          <mxGeometry width="50" height="50" relative="1" as="geometry">
            <mxPoint x="280" y="620" as="sourcePoint" />
            <mxPoint x="310" y="490" as="targetPoint" />
          </mxGeometry>
        </mxCell>
        <mxCell id="EUtt2qG-mCYQ3yjdXnSH-44" value="Нет" style="text;html=1;align=center;verticalAlign=middle;resizable=0;points=[];autosize=1;strokeColor=none;fillColor=none;" vertex="1" parent="1">
          <mxGeometry x="310" y="590" width="40" height="30" as="geometry" />
        </mxCell>
        <mxCell id="EUtt2qG-mCYQ3yjdXnSH-45" value="Выход из цикла" style="text;html=1;align=center;verticalAlign=middle;resizable=0;points=[];autosize=1;strokeColor=none;fillColor=none;" vertex="1" parent="1">
          <mxGeometry x="480" y="450" width="110" height="30" as="geometry" />
        </mxCell>
        <mxCell id="EUtt2qG-mCYQ3yjdXnSH-46" value="Вывод на консоль обоих массивов" style="shape=document;whiteSpace=wrap;html=1;boundedLbl=1;" vertex="1" parent="1">
          <mxGeometry x="540" y="520" width="120" height="80" as="geometry" />
        </mxCell>
        <mxCell id="EUtt2qG-mCYQ3yjdXnSH-48" value="" style="endArrow=none;html=1;rounded=0;" edge="1" parent="1" source="EUtt2qG-mCYQ3yjdXnSH-21">
          <mxGeometry width="50" height="50" relative="1" as="geometry">
            <mxPoint x="490" y="530" as="sourcePoint" />
            <mxPoint x="600" y="480" as="targetPoint" />
          </mxGeometry>
        </mxCell>
        <mxCell id="EUtt2qG-mCYQ3yjdXnSH-49" value="" style="endArrow=classic;html=1;rounded=0;entryX=0.5;entryY=0;entryDx=0;entryDy=0;" edge="1" parent="1" target="EUtt2qG-mCYQ3yjdXnSH-46">
          <mxGeometry width="50" height="50" relative="1" as="geometry">
            <mxPoint x="600" y="480" as="sourcePoint" />
            <mxPoint x="650" y="430" as="targetPoint" />
          </mxGeometry>
        </mxCell>
        <mxCell id="EUtt2qG-mCYQ3yjdXnSH-50" value="Конец" style="rounded=1;whiteSpace=wrap;html=1;" vertex="1" parent="1">
          <mxGeometry x="540" y="650" width="120" height="60" as="geometry" />
        </mxCell>
        <mxCell id="EUtt2qG-mCYQ3yjdXnSH-51" value="" style="endArrow=classic;html=1;rounded=0;exitX=0.518;exitY=0.858;exitDx=0;exitDy=0;exitPerimeter=0;entryX=0.5;entryY=0;entryDx=0;entryDy=0;" edge="1" parent="1" source="EUtt2qG-mCYQ3yjdXnSH-46" target="EUtt2qG-mCYQ3yjdXnSH-50">
          <mxGeometry width="50" height="50" relative="1" as="geometry">
            <mxPoint x="610" y="640" as="sourcePoint" />
            <mxPoint x="660" y="590" as="targetPoint" />
          </mxGeometry>
        </mxCell>
      </root>
    </mxGraphModel>
  </diagram>
</mxfile>
